<?xml version="1.0" standalone="no"?>
 <!DOCTYPE svg PUBLIC "-//W3C//DTD SVG 1.1//EN" 
 "http://www.w3.org/Graphics/SVG/1.1/DTD/svg11.dtd"> 
<svg xmlns="http://www.w3.org/2000/svg" version="1.1" 
    width="29.7002cm" height="21.0007cm" viewBox="0 0 116930 82680 ">
<title>SVG Picture created as simon-F.SilkS.svg date 2016/12/01 00:05:36 </title>
  <desc>Picture generated by PCBNEW </desc>
<g style="fill:#000000; fill-opacity:1;stroke:#000000; stroke-opacity:1;
stroke-linecap:round; stroke-linejoin:round; "
 transform="translate(0 0) scale(1 1)">
</g>
<g style="fill:#000000; fill-opacity:0.0; 
stroke:#000000; stroke-width:-0.000393701; stroke-opacity:1; 
stroke-linecap:round; stroke-linejoin:round;">
</g>
<g style="fill:#000000; fill-opacity:0.0; 
stroke:#000000; stroke-width:59.0551; stroke-opacity:1; 
stroke-linecap:round; stroke-linejoin:round;">
<path d="M60920 53541
L60920 53068
" />
<path d="M59228 52872 A5053.69 5053.69 0.0 0 0 49312.1 54278.5 " />
<path d="M59227.3 52861.7 A314.961 314.961 0.0 0 0 59523.2 53068.9 " />
<path d="M49312.1 54221.5 A5053.69 5053.69 0.0 0 0 59228 55628 " />
<path d="M59523.2 55431.1 A314.961 314.961 0.0 0 0 59227.3 55638.3 " />
<path d="M60920 55431
L59503 55431
" />
<path d="M60920 54958
L60920 55431
" />
<path d="M60920 53068
L59503 53068
" />
<path d="M56521.7 32600.4 A1147.83 1147.83 0.0 1 0 56515.7 31409.4 " />
<path d="M56515 32590
L56515 31409
" />
<circle cx="57500" cy="32000" r="991.313" /> 
<path d="M49921.7 41500.4 A1147.83 1147.83 0.0 1 0 49915.7 40309.4 " />
<path d="M49915 41490
L49915 40309
" />
<circle cx="50900" cy="40900" r="991.313" /> 
<path d="M51478.3 21399.6 A1147.83 1147.83 0.0 1 0 51484.3 22590.6 " />
<path d="M51484 21409
L51484 22590
" />
<circle cx="50500" cy="22000" r="991.313" /> 
<path d="M42521.7 32600.4 A1147.83 1147.83 0.0 1 0 42515.7 31409.4 " />
<path d="M42515 32590
L42515 31409
" />
<circle cx="43500" cy="32000" r="991.313" /> 
</g>
<g style="fill:#000000; fill-opacity:0.0; 
stroke:#000000; stroke-width:78.7402; stroke-opacity:1; 
stroke-linecap:round; stroke-linejoin:round;">
<path d="M50015 37015
L51984 37015
" />
<path d="M51984 37015
L51984 38984
" />
<path d="M51984 38984
L50015 38984
" />
<path d="M50015 38984
L50015 37015
" />
<circle cx="50311" cy="37311" r="196.85" /> 
</g>
<g style="fill:#000000; fill-opacity:0.0; 
stroke:#000000; stroke-width:59.0551; stroke-opacity:1; 
stroke-linecap:round; stroke-linejoin:round;">
<path d="M60000 38500
L62000 38500
" />
<path d="M62000 38500
L62000 39500
" />
<path d="M62000 39500
L60000 39500
" />
<path d="M60000 39500
L60000 38500
" />
<path d="M60000 39000
L59500 39000
" />
<path d="M62000 39000
L62500 39000
" />
<path d="M51500 34000
L51500 32000
" />
<path d="M51500 32000
L52500 32000
" />
<path d="M52500 32000
L52500 34000
" />
<path d="M52500 34000
L51500 34000
" />
<path d="M52000 34000
L52000 34500
" />
<path d="M52000 32000
L52000 31500
" />
<path d="M50500 32000
L50500 34000
" />
<path d="M50500 34000
L49500 34000
" />
<path d="M49500 34000
L49500 32000
" />
<path d="M49500 32000
L50500 32000
" />
<path d="M50000 32000
L50000 31500
" />
<path d="M50000 34000
L50000 34500
" />
<path d="M47500 34000
L47500 32000
" />
<path d="M47500 32000
L48500 32000
" />
<path d="M48500 32000
L48500 34000
" />
<path d="M48500 34000
L47500 34000
" />
<path d="M48000 34000
L48000 34500
" />
<path d="M48000 32000
L48000 31500
" />
<path d="M55500 42000
L55500 40000
" />
<path d="M55500 40000
L56500 40000
" />
<path d="M56500 40000
L56500 42000
" />
<path d="M56500 42000
L55500 42000
" />
<path d="M56000 42000
L56000 42500
" />
<path d="M56000 40000
L56000 39500
" />
<path d="M40500 37000
L40500 39000
" />
<path d="M40500 39000
L39500 39000
" />
<path d="M39500 39000
L39500 37000
" />
<path d="M39500 37000
L40500 37000
" />
<path d="M40000 37000
L40000 36500
" />
<path d="M40000 39000
L40000 39500
" />
<circle cx="44850" cy="43700" r="3151.52" /> 
<path d="M67374 33393
L67374 33354
" />
<path d="M67413 33413
L67275 33413
" />
<path d="M67275.6 33413.4 A496.828 496.828 0.0 0 0 67413.4 33275.6 " />
<path d="M67413 33413
L67413 33275
" />
<circle cx="65818.9" cy="32212.6" r="556.777" /> 
<path d="M66606 31031
L65031 31031
" />
<path d="M66606 33393
L65031 33393
" />
<path d="M67000 31917
L67000 32507
" />
<path d="M64637 32507
L64637 31917
" />
</g>
<g style="fill:#000000; fill-opacity:0.0; 
stroke:#000000; stroke-width:0; stroke-opacity:1; 
stroke-linecap:round; stroke-linejoin:round;">
<path d="M67000 32212
L67000 32212
" />
<path d="M65031 31031
L66606 31031
" />
<path d="M65031 33393
L66606 33393
" />
<path d="M64637 32212
L64637 32212
" />
<circle cx="65818.9" cy="32212.6" r="556.777" /> 
</g>
<g style="fill:#000000; fill-opacity:0.0; 
stroke:#000000; stroke-width:59.0551; stroke-opacity:1; 
stroke-linecap:round; stroke-linejoin:round;">
<path d="M48625 26606
L48625 26645
" />
<path d="M48586 26586
L48724 26586
" />
<path d="M48724.4 26586.6 A496.828 496.828 0.0 0 0 48586.6 26724.4 " />
<path d="M48586 26586
L48586 26724
" />
<circle cx="50181.1" cy="27787.4" r="556.777" /> 
<path d="M49393 28968
L50968 28968
" />
<path d="M49393 26606
L50968 26606
" />
<path d="M49000 28082
L49000 27492
" />
<path d="M51362 27492
L51362 28082
" />
</g>
<g style="fill:#000000; fill-opacity:0.0; 
stroke:#000000; stroke-width:0; stroke-opacity:1; 
stroke-linecap:round; stroke-linejoin:round;">
<path d="M49000 27787
L49000 27787
" />
<path d="M50968 28968
L49393 28968
" />
<path d="M50968 26606
L49393 26606
" />
<path d="M51362 27787
L51362 27787
" />
<circle cx="50181.1" cy="27787.4" r="556.777" /> 
</g>
<g style="fill:#000000; fill-opacity:0.0; 
stroke:#000000; stroke-width:59.0551; stroke-opacity:1; 
stroke-linecap:round; stroke-linejoin:round;">
<path d="M38374 33393
L38374 33354
" />
<path d="M38413 33413
L38275 33413
" />
<path d="M38275.6 33413.4 A496.828 496.828 0.0 0 0 38413.4 33275.6 " />
<path d="M38413 33413
L38413 33275
" />
<circle cx="36818.9" cy="32212.6" r="556.777" /> 
<path d="M37606 31031
L36031 31031
" />
<path d="M37606 33393
L36031 33393
" />
<path d="M38000 31917
L38000 32507
" />
<path d="M35637 32507
L35637 31917
" />
</g>
<g style="fill:#000000; fill-opacity:0.0; 
stroke:#000000; stroke-width:0; stroke-opacity:1; 
stroke-linecap:round; stroke-linejoin:round;">
<path d="M38000 32212
L38000 32212
" />
<path d="M36031 31031
L37606 31031
" />
<path d="M36031 33393
L37606 33393
" />
<path d="M35637 32212
L35637 32212
" />
<circle cx="36818.9" cy="32212.6" r="556.777" /> 
</g>
<g style="fill:#000000; fill-opacity:0.0; 
stroke:#000000; stroke-width:59.0551; stroke-opacity:1; 
stroke-linecap:round; stroke-linejoin:round;">
<path d="M49725 44906
L49725 44945
" />
<path d="M49686 44886
L49824 44886
" />
<path d="M49824.4 44886.6 A496.828 496.828 0.0 0 0 49686.6 45024.4 " />
<path d="M49686 44886
L49686 45024
" />
<circle cx="51281.1" cy="46087.4" r="556.777" /> 
<path d="M50493 47268
L52068 47268
" />
<path d="M50493 44906
L52068 44906
" />
<path d="M50100 46382
L50100 45792
" />
<path d="M52462 45792
L52462 46382
" />
</g>
<g style="fill:#000000; fill-opacity:0.0; 
stroke:#000000; stroke-width:0; stroke-opacity:1; 
stroke-linecap:round; stroke-linejoin:round;">
<path d="M50100 46087
L50100 46087
" />
<path d="M52068 47268
L50493 47268
" />
<path d="M52068 44906
L50493 44906
" />
<path d="M52462 46087
L52462 46087
" />
<circle cx="51281.1" cy="46087.4" r="556.777" /> 
</g>
<g style="fill:#000000; fill-opacity:0.0; 
stroke:#000000; stroke-width:59.0551; stroke-opacity:1; 
stroke-linecap:round; stroke-linejoin:round;">
<path d="M61488 48216
L60503 48216
" />
<path d="M60503 48216
L60503 47783
" />
<path d="M60503 47783
L61488 47783
" />
<path d="M61488 47783
L61488 48216
" />
<path d="M61586 47685
L60405 47685
" />
<path d="M61586 48315
L60405 48315
" />
<path d="M60405 48315
L60405 47685
" />
<path d="M61586 48315
L61586 47685
" />
<path d="M62177 47311
L59814 47311
" />
<path d="M62177 48689
L59814 48689
" />
<path d="M62177 48689
L62177 47311
" />
<path d="M59814 48689
L59814 47311
" />
<path d="M60040 55796
L60096 55815
L60115 55834
L60134 55871
L60134 55927
L60115 55965
L60096 55984
L60059 56002
L59909 56002
L59909 55609
L60040 55609
L60078 55627
L60096 55646
L60115 55684
L60115 55721
L60096 55759
L60078 55777
L60040 55796
L59909 55796
" />
<path d="M60246 55609
L60471 55609
" />
<path d="M60359 56002
L60359 55609
" />
<path d="M60809 56002
L60584 56002
" />
<path d="M60696 56002
L60696 55609
L60659 55665
L60621 55702
L60584 55721
" />
<path d="M59042 54292
L59492 54292
" />
<path d="M59267 54517
L59267 54067
" />
<path d="M57309 33778
L57309 33384
L57403 33384
L57459 33403
L57496 33440
L57515 33478
L57534 33553
L57534 33609
L57515 33684
L57496 33721
L57459 33759
L57403 33778
L57309 33778
" />
<path d="M57909 33778
L57684 33778
" />
<path d="M57796 33778
L57796 33384
L57759 33440
L57721 33478
L57684 33496
" />
<path d="M56146 32928
L56146 32534
" />
<path d="M56371 32928
L56203 32703
" />
<path d="M56371 32534
L56146 32759
" />
<path d="M50709 42678
L50709 42284
L50803 42284
L50859 42303
L50896 42340
L50915 42378
L50934 42453
L50934 42509
L50915 42584
L50896 42621
L50859 42659
L50803 42678
L50709 42678
" />
<path d="M51084 42321
L51103 42303
L51140 42284
L51234 42284
L51271 42303
L51290 42321
L51309 42359
L51309 42396
L51290 42453
L51065 42678
L51309 42678
" />
<path d="M49546 41828
L49546 41434
" />
<path d="M49771 41828
L49603 41603
" />
<path d="M49771 41434
L49546 41659
" />
<path d="M50109 20578
L50109 20184
L50203 20184
L50259 20203
L50296 20240
L50315 20278
L50334 20353
L50334 20409
L50315 20484
L50296 20521
L50259 20559
L50203 20578
L50109 20578
" />
<path d="M50465 20184
L50709 20184
L50578 20334
L50634 20334
L50671 20353
L50690 20371
L50709 20409
L50709 20503
L50690 20540
L50671 20559
L50634 20578
L50521 20578
L50484 20559
L50465 20540
" />
<path d="M51646 21428
L51646 21034
" />
<path d="M51871 21428
L51703 21203
" />
<path d="M51871 21034
L51646 21259
" />
<path d="M43309 33778
L43309 33384
L43403 33384
L43459 33403
L43496 33440
L43515 33478
L43534 33553
L43534 33609
L43515 33684
L43496 33721
L43459 33759
L43403 33778
L43309 33778
" />
<path d="M43871 33515
L43871 33778
" />
<path d="M43778 33365
L43684 33646
L43928 33646
" />
<path d="M42146 32928
L42146 32534
" />
<path d="M42371 32928
L42203 32703
" />
<path d="M42371 32534
L42146 32759
" />
</g>
<g style="fill:#000000; fill-opacity:0.0; 
stroke:#000000; stroke-width:38.3858; stroke-opacity:1; 
stroke-linecap:round; stroke-linejoin:round;">
<path d="M50750 36796
L50750 36540
" />
<path d="M51018 36772
L51006 36784
L50969 36796
L50945 36796
L50908 36784
L50884 36760
L50872 36735
L50859 36687
L50859 36650
L50872 36601
L50884 36577
L50908 36553
L50945 36540
L50969 36540
L51006 36553
L51018 36565
" />
<path d="M51261 36796
L51115 36796
" />
<path d="M51188 36796
L51188 36540
L51164 36577
L51140 36601
L51115 36614
" />
<path d="M49915 39282
L50037 39282
" />
<path d="M49891 39355
L49976 39100
L50061 39355
" />
<path d="M50110 39100
L50256 39100
" />
<path d="M50183 39355
L50183 39100
" />
<path d="M50305 39100
L50451 39100
" />
<path d="M50378 39355
L50378 39100
" />
<path d="M50536 39355
L50536 39100
" />
<path d="M50658 39355
L50658 39100
L50805 39355
L50805 39100
" />
<path d="M50975 39234
L50975 39355
" />
<path d="M50890 39100
L50975 39234
L51060 39100
" />
<path d="M51182 39209
L51158 39197
L51146 39185
L51134 39160
L51134 39148
L51146 39124
L51158 39112
L51182 39100
L51231 39100
L51255 39112
L51268 39124
L51280 39148
L51280 39160
L51268 39185
L51255 39197
L51231 39209
L51182 39209
L51158 39221
L51146 39234
L51134 39258
L51134 39307
L51146 39331
L51158 39343
L51182 39355
L51231 39355
L51255 39343
L51268 39331
L51280 39307
L51280 39258
L51268 39234
L51255 39221
L51231 39209
" />
<path d="M51511 39100
L51389 39100
L51377 39221
L51389 39209
L51414 39197
L51475 39197
L51499 39209
L51511 39221
L51523 39246
L51523 39307
L51511 39331
L51499 39343
L51475 39355
L51414 39355
L51389 39343
L51377 39331
" />
<path d="M51633 39258
L51828 39258
" />
<path d="M51938 39343
L51974 39355
L52035 39355
L52060 39343
L52072 39331
L52084 39307
L52084 39282
L52072 39258
L52060 39246
L52035 39234
L51987 39221
L51962 39209
L51950 39197
L51938 39173
L51938 39148
L51950 39124
L51962 39112
L51987 39100
L52047 39100
L52084 39112
" />
</g>
<g style="fill:#000000; fill-opacity:0.0; 
stroke:#000000; stroke-width:39.3701; stroke-opacity:1; 
stroke-linecap:round; stroke-linejoin:round;">
<path d="M49843 36807
L49873 36807
L49903 36822
L49918 36852
L49918 36882
L49903 36912
L49873 36927
L49843 36927
L49813 36912
L49798 36882
L49798 36852
L49813 36822
L49843 36807
" />
</g>
<g style="fill:#000000; fill-opacity:0.0; 
stroke:#000000; stroke-width:59.0551; stroke-opacity:1; 
stroke-linecap:round; stroke-linejoin:round;">
<path d="M61032 37800
L60901 37612
" />
<path d="M60807 37800
L60807 37406
L60957 37406
L60994 37425
L61013 37443
L61032 37481
L61032 37537
L61013 37575
L60994 37593
L60957 37612
L60807 37612
" />
<path d="M61407 37800
L61182 37800
" />
<path d="M61294 37800
L61294 37406
L61257 37462
L61219 37500
L61182 37518
" />
<path d="M50800 32967
L50612 33098
" />
<path d="M50800 33192
L50406 33192
L50406 33042
L50425 33005
L50443 32986
L50481 32967
L50537 32967
L50575 32986
L50593 33005
L50612 33042
L50612 33192
" />
<path d="M50443 32817
L50425 32798
L50406 32761
L50406 32667
L50425 32630
L50443 32611
L50481 32592
L50518 32592
L50575 32611
L50800 32836
L50800 32592
" />
<path d="M51556 33163
L51368 33294
" />
<path d="M51556 33388
L51162 33388
L51162 33238
L51181 33201
L51199 33182
L51237 33163
L51293 33163
L51331 33182
L51349 33201
L51368 33238
L51368 33388
" />
<path d="M51162 33032
L51162 32788
L51312 32919
L51312 32863
L51331 32826
L51349 32807
L51387 32788
L51481 32788
L51518 32807
L51537 32826
L51556 32863
L51556 32976
L51537 33013
L51518 33032
" />
<path d="M46800 32967
L46612 33098
" />
<path d="M46800 33192
L46406 33192
L46406 33042
L46425 33005
L46443 32986
L46481 32967
L46537 32967
L46575 32986
L46593 33005
L46612 33042
L46612 33192
" />
<path d="M46537 32630
L46800 32630
" />
<path d="M46387 32723
L46668 32817
L46668 32573
" />
<path d="M54800 40967
L54612 41098
" />
<path d="M54800 41192
L54406 41192
L54406 41042
L54425 41005
L54443 40986
L54481 40967
L54537 40967
L54575 40986
L54593 41005
L54612 41042
L54612 41192
" />
<path d="M54406 40611
L54406 40798
L54593 40817
L54575 40798
L54556 40761
L54556 40667
L54575 40630
L54593 40611
L54631 40592
L54725 40592
L54762 40611
L54781 40630
L54800 40667
L54800 40761
L54781 40798
L54762 40817
" />
<path d="M41556 38163
L41368 38294
" />
<path d="M41556 38388
L41162 38388
L41162 38238
L41181 38201
L41199 38182
L41237 38163
L41293 38163
L41331 38182
L41349 38201
L41368 38238
L41368 38388
" />
<path d="M41162 37826
L41162 37901
L41181 37938
L41199 37957
L41256 37994
L41331 38013
L41481 38013
L41518 37994
L41537 37976
L41556 37938
L41556 37863
L41537 37826
L41518 37807
L41481 37788
L41387 37788
L41349 37807
L41331 37826
L41312 37863
L41312 37938
L41331 37976
L41349 37994
L41387 38013
" />
<path d="M44320 44098
L44339 44042
L44339 43948
L44320 43911
L44301 43892
L44264 43873
L44226 43873
L44189 43892
L44170 43911
L44151 43948
L44132 44023
L44114 44061
L44095 44080
L44057 44098
L44020 44098
L43982 44080
L43964 44061
L43945 44023
L43945 43930
L43964 43873
" />
<path d="M44339 43705
L43945 43705
L43945 43555
L43964 43517
L43982 43498
L44020 43480
L44076 43480
L44114 43498
L44132 43517
L44151 43555
L44151 43705
" />
<path d="M44339 43105
L44339 43330
" />
<path d="M44339 43217
L43945 43217
L44001 43255
L44039 43292
L44057 43330
" />
<path d="M65293 30797
L65350 30815
L65443 30815
L65481 30797
L65500 30778
L65518 30740
L65518 30703
L65500 30665
L65481 30647
L65443 30628
L65368 30609
L65331 30590
L65312 30572
L65293 30534
L65293 30497
L65312 30459
L65331 30440
L65368 30422
L65462 30422
L65518 30440
" />
<path d="M65650 30422
L65743 30815
L65818 30534
L65893 30815
L65987 30422
" />
<path d="M66343 30815
L66118 30815
" />
<path d="M66231 30815
L66231 30422
L66193 30478
L66156 30515
L66118 30534
" />
<path d="M49656 29521
L49712 29540
L49806 29540
L49843 29521
L49862 29502
L49881 29465
L49881 29427
L49862 29390
L49843 29371
L49806 29352
L49731 29334
L49693 29315
L49674 29296
L49656 29259
L49656 29221
L49674 29184
L49693 29165
L49731 29146
L49824 29146
L49881 29165
" />
<path d="M50012 29146
L50106 29540
L50181 29259
L50256 29540
L50349 29146
" />
<path d="M50481 29184
L50499 29165
L50537 29146
L50631 29146
L50668 29165
L50687 29184
L50706 29221
L50706 29259
L50687 29315
L50462 29540
L50706 29540
" />
<path d="M36293 30797
L36350 30815
L36443 30815
L36481 30797
L36500 30778
L36518 30740
L36518 30703
L36500 30665
L36481 30647
L36443 30628
L36368 30609
L36331 30590
L36312 30572
L36293 30534
L36293 30497
L36312 30459
L36331 30440
L36368 30422
L36462 30422
L36518 30440
" />
<path d="M36650 30422
L36743 30815
L36818 30534
L36893 30815
L36987 30422
" />
<path d="M37100 30422
L37343 30422
L37212 30572
L37268 30572
L37306 30590
L37325 30609
L37343 30647
L37343 30740
L37325 30778
L37306 30797
L37268 30815
L37156 30815
L37118 30797
L37100 30778
" />
<path d="M50756 47821
L50812 47840
L50906 47840
L50943 47821
L50962 47802
L50981 47765
L50981 47727
L50962 47690
L50943 47671
L50906 47652
L50831 47634
L50793 47615
L50774 47596
L50756 47559
L50756 47521
L50774 47484
L50793 47465
L50831 47446
L50924 47446
L50981 47465
" />
<path d="M51112 47446
L51206 47840
L51281 47559
L51356 47840
L51449 47446
" />
<path d="M51768 47577
L51768 47840
" />
<path d="M51674 47427
L51581 47709
L51824 47709
" />
<path d="M60471 49183
L60527 49201
L60621 49201
L60658 49183
L60677 49164
L60696 49126
L60696 49089
L60677 49051
L60658 49033
L60621 49014
L60546 48995
L60508 48976
L60489 48958
L60471 48920
L60471 48883
L60489 48845
L60508 48826
L60546 48808
L60639 48808
L60696 48826
" />
<path d="M60827 48808
L60921 49201
L60996 48920
L61071 49201
L61164 48808
" />
<path d="M61502 48808
L61314 48808
L61295 48995
L61314 48976
L61352 48958
L61445 48958
L61483 48976
L61502 48995
L61520 49033
L61520 49126
L61502 49164
L61483 49183
L61445 49201
L61352 49201
L61314 49183
L61295 49164
" />
</g> 
</svg>
